<svg xmlns="http://www.w3.org/2000/svg" viewBox="0 0 500 500">
  <rect width="500" height="500" fill="#ffffff"/>
  <!-- QR Code Pattern - This is a placeholder, you'll need to add the actual QR from the image -->
  <g fill="#000000">
    <!-- Top-left finder pattern -->
    <rect x="18" y="18" width="130" height="130"/>
    <rect x="35" y="35" width="96" height="96" fill="#ffffff"/>
    <rect x="52" y="52" width="62" height="62"/>
    
    <!-- Top-right finder pattern -->
    <rect x="352" y="18" width="130" height="130"/>
    <rect x="369" y="35" width="96" height="96" fill="#ffffff"/>
    <rect x="386" y="52" width="62" height="62"/>
    
    <!-- Bottom-left finder pattern -->
    <rect x="18" y="352" width="130" height="130"/>
    <rect x="35" y="369" width="96" height="96" fill="#ffffff"/>
    <rect x="52" y="386" width="62" height="62"/>
    
    <!-- Data modules - simplified representation -->
    <rect x="170" y="30" width="15" height="15"/>
    <rect x="200" y="30" width="15" height="15"/>
    <rect x="230" y="30" width="15" height="15"/>
    <rect x="260" y="45" width="15" height="15"/>
    <rect x="290" y="60" width="15" height="15"/>
    <rect x="320" y="45" width="15" height="15"/>
    
    <!-- More data pattern -->
    <rect x="170" y="170" width="160" height="160"/>
    <rect x="185" y="185" width="130" height="130" fill="#ffffff"/>
    <rect x="200" y="200" width="100" height="100"/>
    <rect x="215" y="215" width="70" height="70" fill="#ffffff"/>
    <rect x="230" y="230" width="40" height="40"/>
  </g>
</svg>
